<svg xmlns="http://www.w3.org/2000/svg" width="128" height="128" viewBox="0 0 128 128">
  <defs>
    <linearGradient id="g" x1="0" x2="1" y1="0" y2="1">
      <stop offset="0" stop-color="#8b5cf6"/>
      <stop offset="0.55" stop-color="#38bdf8"/>
      <stop offset="1" stop-color="#22c55e"/>
    </linearGradient>
    <radialGradient id="bg" cx="35%" cy="25%" r="85%">
      <stop offset="0" stop-color="#0b1020"/>
      <stop offset="1" stop-color="#070a12"/>
    </radialGradient>
  </defs>

  <rect x="8" y="8" width="112" height="112" rx="28" fill="url(#bg)"/>
  <rect x="8" y="8" width="112" height="112" rx="28" fill="none" stroke="url(#g)" stroke-width="4"/>

  <!-- Flame + BV monogram (simple) -->
  <path d="M66 26c8 10 10 20 6 30 9-3 16-12 16-22 0 22-10 34-26 44 10 0 18 5 18 14 0 9-8 16-18 16-12 0-22-10-22-24 0-14 8-28 26-58z"
        fill="url(#g)" opacity="0.95"/>
  <path d="M46 86c0-16 12-28 28-28 8 0 14 2 18 6-4-10-14-16-26-16-18 0-32 14-32 34 0 18 12 32 30 32 10 0 18-4 24-10-6 4-12 6-18 6-14 0-24-10-24-24z"
        fill="#e8eefc" opacity="0.14"/>

  <text x="64" y="86" text-anchor="middle" font-family="system-ui, -apple-system, Segoe UI, Roboto, Arial"
        font-size="44" font-weight="900" fill="#e8eefc" opacity="0.92">B</text>
</svg>
